<?xml version="1.0" encoding="utf-8"?>
<!-- Generator: Adobe Illustrator 27.5.0, SVG Export Plug-In . SVG Version: 6.00 Build 0)  -->
<svg version="1.1" xmlns="http://www.w3.org/2000/svg" xmlns:xlink="http://www.w3.org/1999/xlink" x="0px" y="0px"
	 viewBox="0 0 750 500" style="enable-background:new 0 0 750 500;" xml:space="preserve">
<g id="BACKGROUND">
	<rect style="fill:#FFFFFF;" width="750" height="500"/>
</g>
<g id="OBJECTS">
	<g>
		<g>
			<g>
				<g>
					<path style="fill:#F2F8F7;" d="M299.313,355.696c0,0,9.039-72.849-32.191-116.053c-54.728-57.35-188.484-48.946-188.484-48.946
						s41.739,87.455,110.553,129.824C258.005,362.889,299.313,355.696,299.313,355.696z"/>
				</g>
				<g>
					<path style="fill:#F2F8F7;" d="M331.38,431.779c-20.379-65.397-46.033-85.22-46.29-85.412l6.38-8.655
						c1.156,0.848,28.577,21.562,50.174,90.869L331.38,431.779z"/>
				</g>
			</g>
			<g>
				<g>
					<path style="fill:#F2F8F7;" d="M359.632,334.513c0,0,38.868-63.555,24.262-128.416
						C359.299,96.879,249.702,48.132,249.702,48.132s-12.589,107.146,27.082,187.893
						C316.455,316.773,359.632,334.513,359.632,334.513z"/>
				</g>
				<g>
					<path style="fill:#F2F8F7;" d="M356.249,428.286l-11.566-3.078c19.618-73.694,7.219-107.589,7.091-107.923l11.145-4.365
						C363.505,314.405,377.039,350.189,356.249,428.286z"/>
				</g>
			</g>
			<g>
				<g>
					<path style="fill:#F2F8F7;" d="M300.418,401.671c0,0-29.495-56.573-80.314-67.126c-67.458-14.008-158.99,58.029-158.99,58.029
						s73.028,41.955,143.167,38.294C274.421,427.208,300.418,401.671,300.418,401.671z"/>
				</g>
				<g>
					<path style="fill:#F2F8F7;" d="M360.914,440.266c-46.86-36.722-74.996-38.237-75.275-38.249l0.291-9.339
						c1.246,0.036,31.086,1.317,80.747,40.232L360.914,440.266z"/>
				</g>
			</g>
			<g>
				<g>
					<path style="fill:#F2F8F7;" d="M441.326,295.177c0,0-9.039-72.849,32.191-116.053c54.728-57.35,188.484-48.946,188.484-48.946
						s-41.739,87.455-110.553,129.824C482.634,302.371,441.326,295.177,441.326,295.177z"/>
				</g>
				<g>
					<path style="fill:#F2F8F7;" d="M409.258,371.26l-10.264-3.198c21.596-69.308,49.018-90.021,50.174-90.869l6.379,8.654
						C455.291,286.04,429.637,305.862,409.258,371.26z"/>
				</g>
			</g>
			<g>
				<g>
					<path style="fill:#F2F8F7;" d="M440.22,341.153c0,0,29.495-56.573,80.314-67.126c67.458-14.008,158.99,58.029,158.99,58.029
						s-73.028,41.955-143.167,38.294S440.22,341.153,440.22,341.153z"/>
				</g>
				<g>
					<path style="fill:#F2F8F7;" d="M379.724,379.748l-5.764-7.356c49.662-38.916,79.502-40.197,80.747-40.233l0.267,9.34
						l-0.133-4.67l0.159,4.669C454.721,341.51,426.584,343.025,379.724,379.748z"/>
				</g>
			</g>
		</g>
		<path style="fill:#0E424D;" d="M181.523,423.983c0,0,13.128-62.538,2.232-82.916c-10.768-20.138-25.305-3.559-25.637,12.489
			c-0.332,16.048,4.777,36.247,4.777,36.247s-22.593-50.635-38.549-55.289c-20.65-6.023-15.631,15.685-4.78,34.359
			c10.851,18.674,24.631,33.359,24.631,33.359s-39.515-31.923-65.561-29.576c-26.684,2.404-12.172,24.912,7.423,32.333
			c18.481,6.999,43.165,15.684,43.165,15.684s-51.929-2.435-61.879,4.54c-8.69,6.091-8.427,20.266,24.911,19.8
			c33.496-0.468,86.478-0.115,86.478-0.115L181.523,423.983z"/>
		<path style="fill:#0E424D;" d="M582.073,423.983c0,0-13.128-62.538-2.232-82.916c10.768-20.138,25.305-3.559,25.637,12.489
			c0.332,16.048-4.777,36.247-4.777,36.247s22.593-50.635,38.549-55.289c20.65-6.023,15.631,15.685,4.78,34.359
			c-10.851,18.674-24.631,33.359-24.631,33.359s39.515-31.923,65.56-29.576c26.684,2.404,12.173,24.912-7.422,32.333
			c-18.481,6.999-43.164,15.684-43.164,15.684s51.929-2.435,61.878,4.54c8.69,6.091,8.427,20.266-24.911,19.8
			c-33.496-0.468-86.478-0.115-86.478-0.115L582.073,423.983z"/>
		<g>
			<linearGradient id="SVGID_1_" gradientUnits="userSpaceOnUse" x1="451.9696" y1="434.1819" x2="451.9696" y2="-837.8727">
				<stop  offset="0" style="stop-color:#0E424D"/>
				<stop  offset="1" style="stop-color:#5CAA9A"/>
			</linearGradient>
			<polygon style="fill:url(#SVGID_1_);" points="445.734,209.579 445.734,322.34 458.205,313.341 458.205,209.579 			"/>
			
				<linearGradient id="SVGID_00000049930567646210641350000013680017660627275175_" gradientUnits="userSpaceOnUse" x1="549.7034" y1="180.5228" x2="549.7034" y2="109.2747">
				<stop  offset="0" style="stop-color:#0E424D"/>
				<stop  offset="1" style="stop-color:#5CAA9A"/>
			</linearGradient>
			<circle style="fill:url(#SVGID_00000049930567646210641350000013680017660627275175_);" cx="549.703" cy="175.702" r="25.813"/>
			
				<linearGradient id="SVGID_00000075866273196472579940000003299193224790551464_" gradientUnits="userSpaceOnUse" x1="493.0117" y1="249.7829" x2="493.0117" y2="13.211">
				<stop  offset="0" style="stop-color:#0E424D"/>
				<stop  offset="1" style="stop-color:#5CAA9A"/>
			</linearGradient>
			<path style="fill:url(#SVGID_00000075866273196472579940000003299193224790551464_);" d="M501.939,153.977
				c0,0-11.261-15.329-38.598-7.664c-38.841,10.89-56.874,75.331-6.227,99.939c50.647,24.608,52.539,20.481,52.539,20.481
				s28.672,3.061,45.534-34.495C572.05,194.683,541.792,153.722,501.939,153.977z"/>
			<path style="fill:none;stroke:#0E424D;stroke-width:2.1503;stroke-linecap:round;stroke-miterlimit:10;" d="M490.423,161.096
				c0,0-40.839-2.88-49.937,35.292"/>
			<path style="fill:none;stroke:#0E424D;stroke-width:2.1503;stroke-linecap:round;stroke-miterlimit:10;" d="M493.012,156.277
				c0,0-23.538-9.825-45.19,8.788"/>
			<path style="fill:none;stroke:#0E424D;stroke-width:2.1503;stroke-linecap:round;stroke-miterlimit:10;" d="M435.941,181.935
				c0,0-10.155,16.322,2.108,37.965"/>
			<path style="fill:none;stroke:#0E424D;stroke-width:2.1503;stroke-linecap:round;stroke-miterlimit:10;" d="M496.583,169.051
				c0,0,5.073,29.193,44.038,40.528"/>
			<path style="fill:none;stroke:#0E424D;stroke-width:2.1503;stroke-linecap:round;stroke-miterlimit:10;" d="M508.167,170.073
				c0,0,15.724,28.614,39.995,34.234"/>
			<path style="fill:none;stroke:#0E424D;stroke-width:2.1503;stroke-linecap:round;stroke-miterlimit:10;" d="M522.358,169.051
				c0,0,18.65,10.572,25.804,23.042"/>
			
				<linearGradient id="SVGID_00000168814051632789919180000006388831447099929999_" gradientUnits="userSpaceOnUse" x1="320.4341" y1="415.9737" x2="320.4341" y2="336.434">
				<stop  offset="0" style="stop-color:#F37A4B"/>
				<stop  offset="1" style="stop-color:#F8BA27"/>
			</linearGradient>
			<path style="fill:url(#SVGID_00000168814051632789919180000006388831447099929999_);" d="M306.036,379.676
				c0,0,28.796,38.179,28.796,38.135c0-0.044-18.049,7.401-18.049,7.401L306.036,379.676z"/>
			
				<linearGradient id="SVGID_00000171689389946079093060000003251575487284403366_" gradientUnits="userSpaceOnUse" x1="252.0182" y1="431.048" x2="252.0182" y2="274.4216">
				<stop  offset="0" style="stop-color:#F37A4B"/>
				<stop  offset="1" style="stop-color:#F8BA27"/>
			</linearGradient>
			<path style="fill:url(#SVGID_00000171689389946079093060000003251575487284403366_);" d="M223.509,359.572
				c0,0-32.838,8.11-37.238,19.955c-4.399,11.844-1.692,69.712-1.692,69.712h135.701c0,0-2.713-37.419-9.306-59.753
				c-6.593-22.335-36.398-28.729-36.398-28.729L223.509,359.572z"/>
			
				<linearGradient id="SVGID_00000001658781059994882210000000304641635122499467_" gradientUnits="userSpaceOnUse" x1="247.6817" y1="302.8097" x2="247.6817" y2="172.518" gradientTransform="matrix(0.9933 0.1157 -0.1157 0.9933 33.9024 -39.1961)">
				<stop  offset="0" style="stop-color:#0E424D"/>
				<stop  offset="1" style="stop-color:#5CAA9A"/>
			</linearGradient>
			<path style="fill:url(#SVGID_00000001658781059994882210000000304641635122499467_);" d="M300.782,295.401
				c0,0,4.475-1.602,4.59-23.314c0.096-18.061-12.629-28.811-23.725-33c-14.499-5.473-29.66,1.354-29.66,1.354
				s-9.963-6.837-31.367-0.338c-19.91,6.044-31.341,24.67-33.784,41.249c-2.501,16.977,6.672,38.516,27.515,43.84
				C235.195,330.517,300.782,295.401,300.782,295.401z"/>
			<path style="fill:none;stroke:#0E424D;stroke-width:2.1503;stroke-linecap:round;stroke-miterlimit:10;" d="M253.72,258.086
				c0,0-1.788,11.579-15.712,19.011c-13.924,7.431-30.274,12.208-30.274,12.208"/>
			<path style="fill:none;stroke:#0E424D;stroke-width:2.1503;stroke-linecap:round;stroke-miterlimit:10;" d="M244.906,251.06
				c0,0-7.664,18.318-30.913,23.402"/>
			<path style="fill:none;stroke:#0E424D;stroke-width:2.1503;stroke-linecap:round;stroke-miterlimit:10;" d="M230.726,249.016
				c0,0-30.402,9.858-34.618,33.223"/>
			<path style="fill:none;stroke:#0E424D;stroke-width:2.1503;stroke-linecap:round;stroke-miterlimit:10;" d="M258.829,255.787
				c0,0,4.599,7.1,19.161,8.148c14.562,1.049,18.65,1.432,21.588,7.819"/>
			<path style="fill:none;stroke:#0E424D;stroke-width:2.1503;stroke-linecap:round;stroke-miterlimit:10;" d="M254.231,246.334
				c0,0,23.039-5.193,35.384,2.683"/>
			<path style="fill:none;stroke:#0E424D;stroke-width:2.1503;stroke-linecap:round;stroke-miterlimit:10;" d="M272.166,253.423
				c0,0,22.941,1.814,29.839,9.338"/>
			
				<linearGradient id="SVGID_00000002355480669426424170000010229308354955005334_" gradientUnits="userSpaceOnUse" x1="249.043" y1="379.0259" x2="249.043" y2="322.1281">
				<stop  offset="0" style="stop-color:#FFAD89"/>
				<stop  offset="1" style="stop-color:#FFD1B7"/>
			</linearGradient>
			<path style="fill:url(#SVGID_00000002355480669426424170000010229308354955005334_);" d="M223.509,325.566v34.006
				c0,0,13.974,6.599,30.979,6.091s20.088-4.907,20.088-4.907l-3.885-36.376L223.509,325.566z"/>
			
				<linearGradient id="SVGID_00000152960033885843282380000015764398293804616871_" gradientUnits="userSpaceOnUse" x1="241.503" y1="309.0551" x2="258.9457" y2="371.8846">
				<stop  offset="0" style="stop-color:#6C1A09"/>
				<stop  offset="1" style="stop-color:#6C1A09;stop-opacity:0"/>
			</linearGradient>
			<path style="fill:url(#SVGID_00000152960033885843282380000015764398293804616871_);" d="M228.107,341.219
				c0,0,11.702,24.133,45.903,20.091c0.416-0.339,0.567-0.553,0.567-0.553l-2.254-21.103c-12.611-3.882-25.611-6.573-25.611-6.573
				L228.107,341.219z"/>
			
				<linearGradient id="SVGID_00000026856811583607832740000005429095513685683127_" gradientUnits="userSpaceOnUse" x1="428.0436" y1="440.8452" x2="407.9086" y2="342.3691">
				<stop  offset="0" style="stop-color:#FFAD89"/>
				<stop  offset="1" style="stop-color:#FFD1B7"/>
			</linearGradient>
			<path style="fill:url(#SVGID_00000026856811583607832740000005429095513685683127_);" d="M404.483,444.768
				c0,0,26.73,2.328,40.943-7.406c15.396-10.545-14.51-35.131-14.51-35.131l-19.669,1.38L404.483,444.768z"/>
			
				<linearGradient id="SVGID_00000084487993418591155030000015967557804003822209_" gradientUnits="userSpaceOnUse" x1="425.2933" y1="332.7851" x2="425.2933" y2="450.4241">
				<stop  offset="0" style="stop-color:#5CAA9A"/>
				<stop  offset="1" style="stop-color:#9DCCC2"/>
			</linearGradient>
			<polygon style="fill:url(#SVGID_00000084487993418591155030000015967557804003822209_);" points="449.831,308.408 
				400.756,404.626 445.425,422.9 			"/>
			
				<linearGradient id="SVGID_00000070835304725433778360000003907500644237266583_" gradientUnits="userSpaceOnUse" x1="509.6543" y1="247.0075" x2="509.6543" y2="408.3447">
				<stop  offset="0" style="stop-color:#5CAA9A"/>
				<stop  offset="1" style="stop-color:#9DCCC2"/>
			</linearGradient>
			<path style="fill:url(#SVGID_00000070835304725433778360000003907500644237266583_);" d="M487.632,294.238
				c0,0-30.493,3.471-37.801,14.17c-3.498,5.121-18.957,83.697-18.957,97.233c0,13.536,9.475,39.255,9.475,39.255h144.838
				c0,0,1.497-42.28,3.017-82.183c1.354-35.533-3.32-49.971-12.547-55.298c-9.227-5.327-33.786-19.54-33.786-19.54L487.632,294.238z
				"/>
			
				<linearGradient id="SVGID_00000028300828045515686130000010363610994292982439_" gradientUnits="userSpaceOnUse" x1="514.7119" y1="321.233" x2="514.7119" y2="234.9141">
				<stop  offset="0" style="stop-color:#FFAD89"/>
				<stop  offset="1" style="stop-color:#FFD1B7"/>
			</linearGradient>
			<path style="fill:url(#SVGID_00000028300828045515686130000010363610994292982439_);" d="M487.632,264.724v29.514
				c0,0,6.827,7.673,25.183,6.675c18.929-1.029,28.976-12.592,28.976-12.592l-3.641-49.99L487.632,264.724z"/>
			
				<linearGradient id="SVGID_00000039855585961860620490000013095826594561815735_" gradientUnits="userSpaceOnUse" x1="503.6492" y1="231.9242" x2="519.0686" y2="287.4657">
				<stop  offset="0" style="stop-color:#6C1A09"/>
				<stop  offset="1" style="stop-color:#6C1A09;stop-opacity:0"/>
			</linearGradient>
			<path style="fill:url(#SVGID_00000039855585961860620490000013095826594561815735_);" d="M487.632,283.363
				c47.434-2.267,48.578-43.285,48.578-43.285l-8.737,3.831l-39.841,20.815V283.363z"/>
			
				<linearGradient id="SVGID_00000103952747886123275460000012437036736190797959_" gradientUnits="userSpaceOnUse" x1="500.8851" y1="310.1372" x2="500.8851" y2="159.0851">
				<stop  offset="0" style="stop-color:#FFAD89"/>
				<stop  offset="1" style="stop-color:#FFD1B7"/>
			</linearGradient>
			<path style="fill:url(#SVGID_00000103952747886123275460000012437036736190797959_);" d="M465.028,171.658
				c-10.93,5.621-16.197,18.403-17.446,29.857c-1.663,15.246-1.293,33.874,1.432,45.539c8.647,37.017,49.62,29.237,67.746,20.104
				c16.522-8.324,21.391-28.827,21.391-28.827s13.654,0.569,16.384-8.647c2.731-9.216-3.854-13.018-5.896-14.197
				c-2.042-1.179-10.147-1.846-10.147-1.846s-31.206-4.648-38.536-17.709c-12.516-22.301-10.504-30.493-10.504-30.493
				S482.298,162.776,465.028,171.658z"/>
			<path style="fill:none;stroke:#0E424D;stroke-width:2.5537;stroke-linecap:round;stroke-miterlimit:10;" d="M541.792,232.238
				c0,0-5.581-15.089,7.623-12.338"/>
			
				<radialGradient id="SVGID_00000011740195562441329490000008677764664587355026_" cx="508.1667" cy="228.9828" r="17.851" gradientUnits="userSpaceOnUse">
				<stop  offset="0" style="stop-color:#FF4757"/>
				<stop  offset="1" style="stop-color:#FF4757;stop-opacity:0"/>
			</radialGradient>
			
				<circle style="opacity:0.3;fill:url(#SVGID_00000011740195562441329490000008677764664587355026_);" cx="508.167" cy="228.983" r="20.474"/>
			
				<linearGradient id="SVGID_00000004520635251815020920000007650693600774552740_" gradientUnits="userSpaceOnUse" x1="536.2106" y1="434.1819" x2="536.2106" y2="-837.8727">
				<stop  offset="0" style="stop-color:#0E424D"/>
				<stop  offset="1" style="stop-color:#5CAA9A"/>
			</linearGradient>
			<polygon style="fill:url(#SVGID_00000004520635251815020920000007650693600774552740_);" points="529.975,209.579 
				529.975,322.34 542.446,313.341 542.446,209.579 			"/>
			
				<radialGradient id="SVGID_00000051343482894759086240000016052501281576895624_" cx="438.38" cy="235.559" r="17.851" gradientTransform="matrix(0.8639 0.0323 0.0323 0.9923 70.7899 -17.3247)" gradientUnits="userSpaceOnUse">
				<stop  offset="0" style="stop-color:#FF4757"/>
				<stop  offset="1" style="stop-color:#FF4757;stop-opacity:0"/>
			</radialGradient>
			<path style="opacity:0.3;fill:url(#SVGID_00000051343482894759086240000016052501281576895624_);" d="M474.802,231.242
				c-0.366-11.22-8.581-20.613-18.349-20.978c-9.768-0.366-17.39,8.434-17.025,19.654c0.366,11.221,8.581,20.613,18.349,20.979
				C467.545,251.262,475.168,242.463,474.802,231.242z"/>
			
				<linearGradient id="SVGID_00000147934883445370804290000007619885058633381523_" gradientUnits="userSpaceOnUse" x1="389.4193" y1="507.8402" x2="389.4193" y2="230.9496">
				<stop  offset="0" style="stop-color:#FFAD89"/>
				<stop  offset="1" style="stop-color:#FFD1B7"/>
			</linearGradient>
			<path style="fill:url(#SVGID_00000147934883445370804290000007619885058633381523_);" d="M423.091,418.585
				c0,0-24.313-78.155-26.172-94.413c-1.859-16.259,2.921-23.163,2.921-30.865c0-7.702-2.212-15.261-7.523-28.274
				c-5.311-13.013-9.264-31.345-14.15-29.314c-5.002,2.079-0.281,18.993,0.605,24.127c0.885,5.134,1.593,10.268,1.593,10.268
				l0.089,11.242l-2.707-2.956l-21.999,4.187l6.295,10.513c0,0-0.444,22.514,5.132,27.826c5.577,5.311,5.842,12.103,5.842,12.103
				s2.125,70.488,6.905,86.157c4.78,15.668,13.151,27.058,26.884,25.582C423.21,443.005,423.091,418.585,423.091,418.585z"/>
			
				<linearGradient id="SVGID_00000153680932473556323510000008702598857563361668_" gradientUnits="userSpaceOnUse" x1="371.4078" y1="296.1409" x2="343.87" y2="288.5268">
				<stop  offset="0" style="stop-color:#FFAD89"/>
				<stop  offset="1" style="stop-color:#FFD1B7"/>
			</linearGradient>
			<path style="fill:url(#SVGID_00000153680932473556323510000008702598857563361668_);" d="M360.909,281.15
				c0,0-4.695-4.822-8.629-3.173c-3.934,1.65-3.553,7.614-3.553,10.152s1.65,12.193,2.538,14.155
				c0.888,1.962,3.114,4.709,5.554,1.749c2.44-2.96,0.791-13.493,0.791-13.493l8.241,4.758L360.909,281.15z"/>
			
				<linearGradient id="SVGID_00000045576926354364500210000016545155526043677629_" gradientUnits="userSpaceOnUse" x1="376.5097" y1="291.4526" x2="357.0937" y2="284.9806">
				<stop  offset="0" style="stop-color:#FFAD89"/>
				<stop  offset="1" style="stop-color:#FFD1B7"/>
			</linearGradient>
			<path style="fill:url(#SVGID_00000045576926354364500210000016545155526043677629_);" d="M369.792,274.297
				c0,0-7.741-2.538-10.152,2.411c-2.411,4.949-0.893,10.276,0.888,13.579c1.781,3.302,6.472,12.183,7.995,13.325
				c1.523,1.142,5.911-0.061,5.041-3.299C372.694,297.074,369.792,274.297,369.792,274.297z"/>
			
				<linearGradient id="SVGID_00000067915234555361461260000006764313618471907999_" gradientUnits="userSpaceOnUse" x1="382.6356" y1="287.7868" x2="366.8997" y2="280.5534">
				<stop  offset="0" style="stop-color:#FFAD89"/>
				<stop  offset="1" style="stop-color:#FFD1B7"/>
			</linearGradient>
			<path style="fill:url(#SVGID_00000067915234555361461260000006764313618471907999_);" d="M380.365,270.115
				c0,0-6.005-3.04-9.897,0c-3.892,3.041-5.753,8.624-3.892,14.885c1.861,6.261,6.43,12.859,8.545,15.228
				c2.115,2.369,4.497,2.96,5.632,0.338c1.136-2.622,0.29-3.891-1.233-7.783c-1.523-3.892-4.568-10.152-3.976-12.352
				c0.592-2.199,4.909,0.926,4.909,0.926L380.365,270.115z"/>
			
				<linearGradient id="SVGID_00000046319083622338197250000013075784392245003954_" gradientUnits="userSpaceOnUse" x1="380.0232" y1="416.9785" x2="380.0232" y2="140.0864">
				<stop  offset="0" style="stop-color:#FFAD89"/>
				<stop  offset="1" style="stop-color:#FFD1B7"/>
			</linearGradient>
			<path style="fill:url(#SVGID_00000046319083622338197250000013075784392245003954_);" d="M388.743,290.245
				c0,0-1.184-0.441-8.46-1.405c-7.276-0.964-16.244-5.194-18.782-2.318c-2.538,2.876,3.13,8.206,8.122,10.068
				c4.992,1.861,8.113,1.521,9.006,2.749c0.893,1.227-2.238,2.135-4.268,5.996c-2.03,3.861,3.912,15.618,13.029,14.267
				c9.116-1.351,12.69-18.443,11.591-23.435C397.879,291.176,388.743,290.245,388.743,290.245z"/>
			<path style="fill:none;stroke:#FFFFFF;stroke-width:2.7605;stroke-linecap:round;stroke-miterlimit:10;" d="M470.138,224.106
				L470.138,224.106c-8.243,3.827-17.755,3.827-25.999,0l0,0c-1.139-0.529-1.868-1.671-1.868-2.927v-15.464
				c0-1.576,1.138-2.921,2.691-3.182l0,0c8.061-1.357,16.292-1.357,24.352,0l0,0c1.554,0.262,2.691,1.607,2.691,3.182v15.464
				C472.006,222.436,471.277,223.577,470.138,224.106z"/>
			<path style="fill:none;stroke:#FFFFFF;stroke-width:2.7605;stroke-linecap:round;stroke-miterlimit:10;" d="M509.582,224.106
				L509.582,224.106c-8.243,3.827-17.755,3.827-25.999,0l0,0c-1.139-0.529-1.868-1.671-1.868-2.927v-15.464
				c0-1.576,1.138-2.921,2.691-3.182l0,0c8.061-1.357,16.292-1.357,24.352,0l0,0c1.554,0.262,2.691,1.607,2.691,3.182v15.464
				C511.45,222.436,510.721,223.577,509.582,224.106z"/>
			<path style="fill:none;stroke:#0E424D;stroke-width:2.5537;stroke-linecap:round;stroke-miterlimit:10;" d="M474.889,214.246
				c0,0-1.326,10.161-6.827,22.647c-1.566,3.554,7.651,5.467,7.651,5.467"/>
			
				<linearGradient id="SVGID_00000182517854901669538940000004713243374895207809_" gradientUnits="userSpaceOnUse" x1="562.5014" y1="280.9873" x2="562.5014" y2="420.24">
				<stop  offset="0" style="stop-color:#5CAA9A"/>
				<stop  offset="1" style="stop-color:#9DCCC2"/>
			</linearGradient>
			<path style="fill:url(#SVGID_00000182517854901669538940000004713243374895207809_);" d="M580.068,311.117
				c0,0,10.026,14.322,11.042,50.87c1.015,36.548,1.015,51.776,1.015,51.776l-50.253-5.076c0,0-11.622-41.37-8.443-72.334
				C536.608,305.389,571.006,305.885,580.068,311.117z"/>
			<path style="fill:#FFF6E5;" d="M401.613,414.385h51.087c4.863,0,8.804-3.942,8.804-8.805v-88.989
				c0-4.863-3.942-8.804-8.804-8.804h-51.087c-4.863,0-8.805,3.942-8.805,8.804v88.989
				C392.809,410.443,396.75,414.385,401.613,414.385z"/>
			
				<text transform="matrix(0.8123 0 0 1 399.401 390.971)" style="fill:#0E424D; font-family:'Montserrat-Bold'; font-size:89.0724px;">A</text>
			
				<linearGradient id="SVGID_00000057861735171590291410000014129245310548246453_" gradientUnits="userSpaceOnUse" x1="590.0365" y1="451.0534" x2="466.3999" y2="352.1442">
				<stop  offset="0" style="stop-color:#FFAD89"/>
				<stop  offset="1" style="stop-color:#FFD1B7"/>
			</linearGradient>
			<path style="fill:url(#SVGID_00000057861735171590291410000014129245310548246453_);" d="M559.95,404.603
				c0,0-47.514-30.374-52.507-36.341c-4.993-5.967-11.116-13.625-14.469-16.21c-3.353-2.586-20.956-4.674-24.238-4.674
				c-3.282,0-21.481,6.415-23.122,7.757c-1.641,1.342-2.934,1.79-2.437,4.077c0.497,2.287,6.265,2.287,6.265,2.287
				s-6.962,1.492-7.16,3.282c-0.199,1.79,2.387,4.276,5.47,4.973c3.083,0.696,5.569,0.199,5.569,0.199s-5.889,1.448-6.077,3.509
				c-0.188,2.061,3.491,4.149,6.574,4.149c3.083,0,4.973,0,4.973,0s-4.177,0.895-4.873,2.188c-0.696,1.293,2.984,4.674,7.757,5.072
				c4.773,0.398,8.254-2.287,13.923-1.691c5.669,0.597,12.083,4.177,15.663,5.818c3.58,1.641,7.011,1.641,7.011,1.641
				s41.177,68.967,79.689,54.839c20.191-7.407,14.109-31.856,14.109-31.856L559.95,404.603z"/>
			
				<linearGradient id="SVGID_00000109735202649269661060000000362208979107563166_" gradientUnits="userSpaceOnUse" x1="538.3605" y1="493.5118" x2="538.3605" y2="375.8435">
				<stop  offset="0" style="stop-color:#6C1A09"/>
				<stop  offset="1" style="stop-color:#6C1A09;stop-opacity:0"/>
			</linearGradient>
			<path style="fill:url(#SVGID_00000109735202649269661060000000362208979107563166_);" d="M556.808,445.805
				c0.358-0.628,0.578-1.345,0.578-2.12v-34.362c0-2.382-1.931-4.313-4.313-4.313h-33.739v13.713
				C529.668,430.185,542.877,441.7,556.808,445.805z"/>
			
				<linearGradient id="SVGID_00000031924616587708824550000002177133275435525526_" gradientUnits="userSpaceOnUse" x1="449.0946" y1="361.4963" x2="449.3651" y2="361.4973">
				<stop  offset="0" style="stop-color:#FFAD89"/>
				<stop  offset="1" style="stop-color:#FFAD89;stop-opacity:0"/>
			</linearGradient>
			<path style="fill:url(#SVGID_00000031924616587708824550000002177133275435525526_);" d="M449.443,361.5
				c0,0-0.112-0.003-0.273-0.005C449.341,361.499,449.443,361.5,449.443,361.5z"/>
			<path style="fill:#FFFFFF;" d="M486.705,266.733L486.705,266.733c-8.414,0-15.234-6.821-15.234-15.234v-1.524
				c0-2.056,1.667-3.723,3.722-3.723h23.024c2.056,0,3.723,1.667,3.723,3.723v1.524
				C501.939,259.912,495.119,266.733,486.705,266.733z"/>
			<path style="fill:none;stroke:#0E424D;stroke-width:2.8482;stroke-linecap:round;stroke-miterlimit:10;" d="M466.111,193.08
				c0,0-6.218-4.442-12.817,0"/>
			<path style="fill:none;stroke:#0E424D;stroke-width:2.8482;stroke-linecap:round;stroke-miterlimit:10;" d="M488.068,193.08
				c0,0,6.218-4.442,12.817,0"/>
			<path style="fill:#0E424D;" d="M465.476,214.739c0-2.85-2.311-5.161-5.161-5.161c-2.85,0-5.161,2.311-5.161,5.161
				c0,2.85,2.31,5.161,5.161,5.161C463.166,219.9,465.476,217.59,465.476,214.739z"/>
			<path style="fill:#0E424D;" d="M499.637,214.739c0-2.85-2.31-5.161-5.161-5.161c-2.85,0-5.161,2.311-5.161,5.161
				c0,2.85,2.31,5.161,5.161,5.161C497.327,219.9,499.637,217.59,499.637,214.739z"/>
			<path style="fill:none;stroke:#FFFFFF;stroke-width:2.7605;stroke-linecap:round;stroke-miterlimit:10;" d="M472.006,208.012
				c0,0,2.683-3.046,9.709,0"/>
			<path style="fill:#0E424D;" d="M640.68,451.868H76.991c-3.53,0-6.391-2.861-6.391-6.391v0c0-3.53,2.861-6.391,6.391-6.391h563.69
				c3.53,0,6.391,2.861,6.391,6.391l0,0C647.071,449.007,644.21,451.868,640.68,451.868z"/>
			
				<linearGradient id="SVGID_00000158017081860852793840000005817054610861909169_" gradientUnits="userSpaceOnUse" x1="262.0238" y1="390.1169" x2="262.0238" y2="270.3297" gradientTransform="matrix(0.9933 0.1157 -0.1157 0.9933 33.9024 -39.1961)">
				<stop  offset="0" style="stop-color:#FFAD89"/>
				<stop  offset="1" style="stop-color:#FFD1B7"/>
			</linearGradient>
			<path style="fill:url(#SVGID_00000158017081860852793840000005817054610861909169_);" d="M306.428,322.974
				c-4.977,22.247-43.299,32.432-63.67,25.97c-20.37-6.462-19.195-16.546-19.195-16.546s-8.713,0.944-14.844-5.648
				c-6.131-6.591-3.901-14.764,1.968-16.891s14.18,4.055,14.18,4.055s3.653-3.596,4.299-9.142
				c0.646-5.546-2.053-14.548-2.053-14.548s9.341-1.609,18.765-8.103c8.453-5.824,12.917-18.188,12.917-18.188
				s4.522,5.254,13.749,6.075c9.878,0.878,16.174-0.761,16.174-0.761S311.405,300.727,306.428,322.974z"/>
			
				<radialGradient id="SVGID_00000096782314174688852840000018092926495394480787_" cx="247.0326" cy="311.8122" r="15.6542" gradientTransform="matrix(0.8639 0.0323 0.0323 0.9923 70.7899 -17.3247)" gradientUnits="userSpaceOnUse">
				<stop  offset="0" style="stop-color:#FF4757"/>
				<stop  offset="1" style="stop-color:#FF4757;stop-opacity:0"/>
			</radialGradient>
			<path style="opacity:0.3;fill:url(#SVGID_00000096782314174688852840000018092926495394480787_);" d="M309.783,300.646
				c-0.321-9.84-7.525-18.076-16.091-18.397c-8.566-0.321-15.25,7.396-14.93,17.235c0.321,9.84,7.525,18.076,16.091,18.397
				C303.419,318.203,310.104,310.486,309.783,300.646z"/>
			
				<linearGradient id="SVGID_00000141441318962094558270000013531528857628202923_" gradientUnits="userSpaceOnUse" x1="172.437" y1="417.9094" x2="172.437" y2="325.6565">
				<stop  offset="0" style="stop-color:#F37A4B"/>
				<stop  offset="1" style="stop-color:#F8BA27"/>
			</linearGradient>
			<path style="fill:url(#SVGID_00000141441318962094558270000013531528857628202923_);" d="M188.647,375.81l-35.539,38.911
				l30.812,13.903C183.919,428.623,197.791,399.166,188.647,375.81z"/>
			
				<linearGradient id="SVGID_00000011746513674452941730000006497974098196956038_" gradientUnits="userSpaceOnUse" x1="191.7999" y1="446.951" x2="191.7999" y2="413.3922">
				<stop  offset="0" style="stop-color:#FFAD89"/>
				<stop  offset="1" style="stop-color:#FFD1B7"/>
			</linearGradient>
			<path style="fill:url(#SVGID_00000011746513674452941730000006497974098196956038_);" d="M153.108,414.721l-6.787,8.573
				c-5.057,6.388-0.508,15.792,7.64,15.792h85.441c0,0-2.792-12.098-12.183-15.144c-9.391-3.046-23.457,2.961-23.457,2.961
				l-22.238-2.921l2.232-2.921L153.108,414.721z"/>
			
				<linearGradient id="SVGID_00000176024897872561758740000005490062348043573663_" gradientUnits="userSpaceOnUse" x1="437.3028" y1="372.5691" x2="473.2162" y2="372.696">
				<stop  offset="0" style="stop-color:#FFAD89"/>
				<stop  offset="1" style="stop-color:#FFAD89;stop-opacity:0"/>
			</linearGradient>
			<path style="fill:url(#SVGID_00000176024897872561758740000005490062348043573663_);" d="M474.359,375.819
				c4.695,0.381,9.137,1.791,9.137,1.791l-6.091-9.152c0,0-9.843-2.469-24.084,1.494c-0.559,0.155-1.082,0.313-1.589,0.472
				c-1.759,0.586-4.363,1.676-4.488,3.037c-0.188,2.061,3.491,4.149,6.574,4.149c3.083,0,4.973,0,4.973,0
				S469.664,375.439,474.359,375.819z"/>
			
				<linearGradient id="SVGID_00000065075568031639635370000018158986184643382435_" gradientUnits="userSpaceOnUse" x1="432.6443" y1="364.4048" x2="467.4415" y2="364.5277">
				<stop  offset="0" style="stop-color:#FFAD89"/>
				<stop  offset="1" style="stop-color:#FFAD89;stop-opacity:0"/>
			</linearGradient>
			<path style="fill:url(#SVGID_00000065075568031639635370000018158986184643382435_);" d="M452.355,370.075l0.966-0.122
				c14.241-3.963,24.084-1.494,24.084-1.494l-3.173-8.756c0,0-6.387-1.269-10.702-0.677c-4.315,0.592-14.088,2.474-14.088,2.474
				s-6.962,1.492-7.16,3.282c-0.199,1.79,2.387,4.276,5.47,4.973C449.669,370.187,451.354,370.158,452.355,370.075z"/>
			
				<linearGradient id="SVGID_00000069378746919820597400000000183615580075924121_" gradientUnits="userSpaceOnUse" x1="160.8329" y1="438.0583" x2="159.1672" y2="431.6128">
				<stop  offset="0" style="stop-color:#FFAD89"/>
				<stop  offset="1" style="stop-color:#FFAD89;stop-opacity:0"/>
			</linearGradient>
			<path style="fill:url(#SVGID_00000069378746919820597400000000183615580075924121_);" d="M160.657,429.949
				c0,0,3.13,4.399,4.315,5.837c1.184,1.438,1.184,3.299,1.184,3.299h-8.037l-4.23-7.783L160.657,429.949z"/>
			
				<linearGradient id="SVGID_00000034072446459794711490000008683598173786994350_" gradientUnits="userSpaceOnUse" x1="153.552" y1="440.2241" x2="151.2677" y2="433.6252">
				<stop  offset="0" style="stop-color:#FFAD89"/>
				<stop  offset="1" style="stop-color:#FFAD89;stop-opacity:0"/>
			</linearGradient>
			<polygon style="fill:url(#SVGID_00000034072446459794711490000008683598173786994350_);" points="153.889,431.302 
				158.119,439.086 149.235,439.086 145.767,432.064 			"/>
			
				<linearGradient id="SVGID_00000073690195093754003860000008927152635663320986_" gradientUnits="userSpaceOnUse" x1="310.9745" y1="445.9535" x2="310.9745" y2="416.6506">
				<stop  offset="0" style="stop-color:#FFAD89"/>
				<stop  offset="1" style="stop-color:#FFD1B7"/>
			</linearGradient>
			<path style="fill:url(#SVGID_00000073690195093754003860000008927152635663320986_);" d="M334.832,417.811l10.152,21.275h-67.989
				c0,0-1.141-11.316,10.412-14.881c11.553-3.566,22.796,2.925,22.796,2.925l6.016-1.737l-0.859-2.314L334.832,417.811z"/>
			<path style="fill:none;stroke:#0E424D;stroke-width:2.8482;stroke-linecap:round;stroke-miterlimit:10;" d="M241.124,293.012
				c0,0,6.143-9.59,16.312-6.958"/>
			<path style="fill:none;stroke:#0E424D;stroke-width:2.8482;stroke-linecap:round;stroke-miterlimit:10;" d="M274.577,279.732
				c0,0,4.915-8.53,14.141-3.885"/>
			<path style="fill:none;stroke:#0E424D;stroke-width:2.8482;stroke-linecap:round;stroke-miterlimit:10;" d="M272.166,286.474
				c0,0,0.852,11.835,7.778,12.492c5.083,0.482,7.358,6.403,2.156,8.727"/>
			<path style="fill:#0E424D;" d="M262.275,297.68c0.33-2.831-1.698-5.393-4.529-5.723c-2.831-0.33-5.393,1.698-5.723,4.529
				c-0.33,2.831,1.698,5.393,4.529,5.723C259.382,302.539,261.945,300.512,262.275,297.68z"/>
			<path style="fill:#0E424D;" d="M291.404,287.998c0.33-2.831-1.698-5.393-4.529-5.723c-2.831-0.33-5.393,1.698-5.723,4.529
				c-0.33,2.831,1.698,5.393,4.529,5.723C288.511,292.857,291.074,290.829,291.404,287.998z"/>
			<path style="fill:#FFFFFF;" d="M279.332,336.03L279.332,336.03c-8.186,1.945-16.399-3.114-18.344-11.3l-0.352-1.483
				c-0.475-2,0.761-4.007,2.761-4.482l22.4-5.323c2-0.475,4.007,0.761,4.482,2.761l0.352,1.483
				C292.577,325.872,287.518,334.085,279.332,336.03z"/>
			<path style="fill:none;stroke:#0E424D;stroke-width:2.8482;stroke-linecap:round;stroke-miterlimit:10;" d="M222.904,326.354
				c0,0-2.03-5.457-7.614-7.487c-5.584-2.03-4.949,1.904-3.426,3.744"/>
			
				<radialGradient id="SVGID_00000011000338750535899640000004947097344733477775_" cx="215.722" cy="319.6046" r="15.6547" gradientTransform="matrix(1.0061 -0.0015 -0.0015 1.0003 34.7834 -9.1105)" gradientUnits="userSpaceOnUse">
				<stop  offset="0" style="stop-color:#FF4757"/>
				<stop  offset="1" style="stop-color:#FF4757;stop-opacity:0"/>
			</radialGradient>
			<path style="opacity:0.3;fill:url(#SVGID_00000011000338750535899640000004947097344733477775_);" d="M269.406,310.24
				c0.014-9.919-8.061-17.949-18.038-17.934c-9.977,0.014-18.076,8.067-18.09,17.986c-0.014,9.919,8.061,17.949,18.038,17.934
				C261.292,328.212,269.392,320.159,269.406,310.24z"/>
		</g>
		<g>
			<polygon style="fill:#FCE3A9;" points="363.632,417.811 319.689,417.811 351.115,431.302 			"/>
			<g>
				<polygon style="fill:#FFF6E5;" points="381.484,406.481 324.921,406.481 347.76,410.948 366.538,408.265 				"/>
				<path style="fill:#FFF6E5;" d="M351.115,431.302c0,0-1.662-9.912,9.068-19.492c10.73-9.581,42.41-3.321,42.41-3.321h-57.118
					c0,0-31.68-6.259-42.41,3.321c-10.73,9.581-9.068,19.492-9.068,19.492H351.115z"/>
				<path style="fill:#FCE3A9;" d="M402.353,408.249h-35.849c-0.045-0.046-0.082-0.086-0.112-0.119
					C379.895,403.814,402.353,408.249,402.353,408.249z"/>
			</g>
			
				<rect x="295.481" y="431.302" transform="matrix(-1 -1.224647e-16 1.224647e-16 -1 702.2324 870.3884)" style="fill:#5CAA9A;" width="111.271" height="7.783"/>
			
				<rect x="351.116" y="431.302" transform="matrix(-1 -1.224647e-16 1.224647e-16 -1 757.868 870.3884)" style="fill:#5CAA9A;" width="55.636" height="7.783"/>
			
				<rect x="230.328" y="431.302" transform="matrix(-1 -1.224647e-16 1.224647e-16 -1 525.8083 870.3884)" style="fill:#458073;" width="65.153" height="7.783"/>
			<path style="fill:#FFF6E5;" d="M404.381,431.302v-6.091c0,0-17.712-4.657-35.682-7.401
				c-17.969-2.743-17.583,13.492-17.583,13.492H404.381z"/>
			<path style="fill:#FCE3A9;" d="M276.531,417.811c1.717-0.262,3.264-0.349,4.663-0.295l-0.016-0.017h57.713l-41.041,13.804h-3.736
				H240.85v-6.091C240.85,425.211,258.562,420.554,276.531,417.811z"/>
			<path style="fill:#FFF6E5;" d="M297.85,431.302v-6.091c0,0,17.713-4.657,35.682-7.401s17.583,13.492,17.583,13.492H297.85z"/>
			<rect x="240.85" y="425.211" style="fill:#F8BA27;" width="57.001" height="6.091"/>
		</g>
		<path style="fill:#458073;" d="M351.116,431.302c0,0-1.563-4.611-10.632-4.355c-9.07,0.255-12.167,0.958-17.916,2.491
			c-7.475,1.993-14.946,1.864-14.946,1.864H351.116z"/>
		<path style="fill:#458073;" d="M351.116,431.302c0,0,1.563-4.611,10.633-4.355c9.07,0.255,12.167,0.958,17.915,2.491
			c7.475,1.993,14.946,1.864,14.946,1.864H351.116z"/>
		<g>
			<path style="fill:#0E424D;" d="M512.065,396.004h-33.739c-2.382,0-4.313,1.931-4.313,4.313v34.362
				c0,2.382,1.931,4.313,4.313,4.313h33.739V396.004z"/>
			
				<linearGradient id="SVGID_00000178191273602018504900000001160819893868527751_" gradientUnits="userSpaceOnUse" x1="531.0916" y1="390.767" x2="531.0916" y2="456.1101">
				<stop  offset="0" style="stop-color:#F37A4B"/>
				<stop  offset="1" style="stop-color:#F8BA27"/>
			</linearGradient>
			<path style="fill:url(#SVGID_00000178191273602018504900000001160819893868527751_);" d="M545.805,396.004h-33.739v42.988h33.739
				c2.382,0,4.313-1.931,4.313-4.313v-34.362C550.118,397.935,548.187,396.004,545.805,396.004z"/>
			<rect x="478.541" y="399.742" style="fill:#FFF6E5;" width="28.997" height="35.512"/>
			<rect x="516.593" y="399.742" style="fill:#FCE3A9;" width="28.997" height="35.512"/>
			
				<text transform="matrix(1 0 0 1 480.2203 429.7864)" style="fill:#0E424D; font-family:'Montserrat-Bold'; font-size:34.3591px;">E</text>
			
				<text transform="matrix(1 0 0 1 516.5934 429.7864)" style="fill:#0E424D; font-family:'Montserrat-Bold'; font-size:34.3591px;">O</text>
		</g>
		<g>
			<g>
				<g>
					<path style="fill:#F8BA27;" d="M101.507,372.563l-6.797-9.555c-0.412-0.579-1.321-0.333-1.386,0.374l-1.067,11.677
						l13.28,49.208l9.25-2.496L101.507,372.563z"/>
					
						<linearGradient id="SVGID_00000070824718855178105670000003812648046232894112_" gradientUnits="userSpaceOnUse" x1="80.1222" y1="368.9514" x2="80.1222" y2="354.3735" gradientTransform="matrix(0.9655 -0.2605 0.2605 0.9655 -76.3128 39.4781)">
						<stop  offset="0" style="stop-color:#FFAD89"/>
						<stop  offset="1" style="stop-color:#FFD1B7"/>
					</linearGradient>
					<path style="fill:url(#SVGID_00000070824718855178105670000003812648046232894112_);" d="M93.325,363.382l-1.067,11.677
						l9.25-2.496l-6.797-9.555C94.299,362.429,93.389,362.674,93.325,363.382z"/>
					<path style="fill:#F8BA27;" d="M93.325,363.382l-0.333,3.64l3.837-1.035l-2.119-2.978
						C94.299,362.429,93.389,362.674,93.325,363.382z"/>
				</g>
				<g>
					<path style="fill:#5CAA9A;" d="M114.664,371.902l-4.073-10.996c-0.247-0.666-1.189-0.666-1.435,0l-4.073,10.996v50.968h9.581
						V371.902z"/>
					
						<linearGradient id="SVGID_00000174588505996732074560000005227518307470734250_" gradientUnits="userSpaceOnUse" x1="109.8736" y1="372.9561" x2="109.8736" y2="358.3782">
						<stop  offset="0" style="stop-color:#FFAD89"/>
						<stop  offset="1" style="stop-color:#FFD1B7"/>
					</linearGradient>
					<path style="fill:url(#SVGID_00000174588505996732074560000005227518307470734250_);" d="M109.156,360.906l-4.073,10.996h9.581
						l-4.073-10.996C110.345,360.24,109.403,360.24,109.156,360.906z"/>
					<path style="fill:#5CAA9A;" d="M109.156,360.906l-1.269,3.428h3.974l-1.269-3.428
						C110.345,360.24,109.403,360.24,109.156,360.906z"/>
				</g>
				<g>
					<path style="fill:#5CAA9A;" d="M141.912,370.672l-2.338-11.491c-0.142-0.696-1.072-0.841-1.418-0.22l-5.711,10.241
						l-7.819,50.365l9.467,1.47L141.912,370.672z"/>
					
						<linearGradient id="SVGID_00000182530277806186468270000002956862284129889946_" gradientUnits="userSpaceOnUse" x1="145.685" y1="371.9029" x2="145.685" y2="357.3254" gradientTransform="matrix(0.9882 0.1534 -0.1534 0.9882 50.1007 -18.8844)">
						<stop  offset="0" style="stop-color:#FFAD89"/>
						<stop  offset="1" style="stop-color:#FFD1B7"/>
					</linearGradient>
					<path style="fill:url(#SVGID_00000182530277806186468270000002956862284129889946_);" d="M138.156,358.961l-5.711,10.241
						l9.467,1.47l-2.338-11.491C139.433,358.485,138.502,358.34,138.156,358.961z"/>
					<path style="fill:#5CAA9A;" d="M138.156,358.961l-1.78,3.192l3.927,0.61l-0.729-3.582
						C139.433,358.485,138.502,358.34,138.156,358.961z"/>
				</g>
				<g>
					<path style="fill:#F37A4B;" d="M129.225,371.427l-4.873-10.665c-0.295-0.646-1.235-0.576-1.431,0.106l-3.25,11.267
						l3.762,50.829l9.554-0.707L129.225,371.427z"/>
					
						<linearGradient id="SVGID_00000116212112696035033040000017541389212586982549_" gradientUnits="userSpaceOnUse" x1="119.592" y1="370.9462" x2="119.592" y2="356.3685" gradientTransform="matrix(0.9973 -0.0738 0.0738 0.9973 -22.1197 11.7128)">
						<stop  offset="0" style="stop-color:#FFAD89"/>
						<stop  offset="1" style="stop-color:#FFD1B7"/>
					</linearGradient>
					<path style="fill:url(#SVGID_00000116212112696035033040000017541389212586982549_);" d="M122.92,360.867l-3.25,11.267
						l9.554-0.707l-4.873-10.665C124.056,360.115,123.117,360.185,122.92,360.867z"/>
					<path style="fill:#F37A4B;" d="M122.92,360.867l-1.013,3.512l3.963-0.293l-1.519-3.324
						C124.056,360.115,123.117,360.185,122.92,360.867z"/>
				</g>
				<g>
					<path style="fill:#F8BA27;" d="M124.347,372.103l-3.343-11.239c-0.202-0.681-1.142-0.743-1.432-0.094l-4.785,10.705
						l-3.34,50.859l9.56,0.628L124.347,372.103z"/>
					
						<linearGradient id="SVGID_00000003783924143060281640000014372931428890441348_" gradientUnits="userSpaceOnUse" x1="123.1495" y1="373.2224" x2="123.1495" y2="358.645" gradientTransform="matrix(0.9979 0.0655 -0.0655 0.9979 21.0531 -7.6646)">
						<stop  offset="0" style="stop-color:#FFAD89"/>
						<stop  offset="1" style="stop-color:#FFD1B7"/>
					</linearGradient>
					<path style="fill:url(#SVGID_00000003783924143060281640000014372931428890441348_);" d="M119.572,360.769l-4.785,10.705
						l9.56,0.628l-3.343-11.239C120.801,360.182,119.861,360.121,119.572,360.769z"/>
					<path style="fill:#F8BA27;" d="M119.572,360.769l-1.491,3.337l3.966,0.26l-1.042-3.503
						C120.801,360.182,119.861,360.121,119.572,360.769z"/>
				</g>
			</g>
			<rect x="93.708" y="398.014" style="fill:#5CAA9A;" width="46.753" height="40.978"/>
		</g>
		<g>
			<path style="fill:#0E424D;" d="M312.348,129.747H191.689c-20.941,0-37.917,16.976-37.917,37.917v0
				c0,20.941,16.976,37.917,37.917,37.917h120.659c20.941,0,37.917-16.976,37.917-37.917v0
				C350.264,146.723,333.289,129.747,312.348,129.747z"/>
			
				<text transform="matrix(1 0 0 1 183.4625 186.3401)" style="fill:#F8BA27; font-family:'Montserrat-Bold'; font-size:30.9622px;">A</text>
			<text transform="matrix(1 0 0 1 252.0709 183.972)" style="fill:#F37A4B; font-family:'Montserrat-Bold'; font-size:36.8625px;">A</text>
			<text transform="matrix(1 0 0 1 210.4572 180.773)" style="fill:#5CAA9A; font-family:'Montserrat-Bold'; font-size:46.9383px;">A</text>
			<text transform="matrix(1 0 0 1 285.5463 180.773)" style="fill:#F8BA27; font-family:'Montserrat-Bold'; font-size:46.9383px;">A</text>
			<path style="fill:#0E424D;" d="M282.461,202.519c0,0-3.852,22.745,19.672,23.504c20.453,0.66,25.037,4.854,25.293,13.541
				c0.214,7.263-9.935,15.329-9.935,15.329s16.336-5.229,17.193-17.93c1.022-15.155-15.433-19.37-27.542-21.286
				c-8.539-1.351,2.175-15.201,2.175-15.201L282.461,202.519z"/>
		</g>
	</g>
</g>
</svg>
