<svg width="36" height="36" viewBox="0 0 25 24" fill="#343C54" xmlns="http://www.w3.org/2000/svg">
<path fill-rule="evenodd" clip-rule="evenodd" d="M8.50471 9.26784C8.50471 7.32499 10.0797 5.75 12.0225 5.75C13.9654 5.75 15.5404 7.32499 15.5404 9.26784C15.5404 11.2107 13.9654 12.7857 12.0225 12.7857C10.0797 12.7857 8.50471 11.2107 8.50471 9.26784ZM12.0225 7.25C10.9081 7.25 10.0047 8.15342 10.0047 9.26784C10.0047 10.3823 10.9081 11.2857 12.0225 11.2857C13.137 11.2857 14.0404 10.3823 14.0404 9.26784C14.0404 8.15342 13.137 7.25 12.0225 7.25Z" fill="#343C54"></path>
<path fill-rule="evenodd" clip-rule="evenodd" d="M2.02344 12C2.02344 6.47715 6.50059 2 12.0234 2C17.5463 2 22.0234 6.47715 22.0234 12C22.0234 17.5228 17.5463 22 12.0234 22C6.50059 22 2.02344 17.5228 2.02344 12ZM12.0234 3.5C7.32902 3.5 3.52344 7.30558 3.52344 12C3.52344 14.1526 4.32364 16.1184 5.6428 17.616C6.19623 15.3096 8.27196 13.5955 10.748 13.5955H13.298C15.7744 13.5955 17.8503 15.31 18.4035 17.6167C19.723 16.119 20.5234 14.153 20.5234 12C20.5234 7.30558 16.7179 3.5 12.0234 3.5ZM17.048 18.8566V18.8455C17.048 16.7744 15.3691 15.0955 13.298 15.0955H10.748C8.67698 15.0955 6.99805 16.7744 6.99805 18.8455V18.856C8.40567 19.8895 10.1433 20.5 12.0234 20.5C13.9033 20.5 15.6406 19.8898 17.048 18.8566Z" fill="#343C54"></path>
</svg>